{"title":"Mirrors 2 (2010) DVDRip AC3 MultiSubs 5x","uid":5866558,"size":1255729112,"categoryP":"video","categoryS":"movies","magnet":"?xt=urn:btih:a8faf3ff579d3003eab654ef39bdc3f8dd73d5b1&amp;dn=Mirrors+2+%282010%29+DVDRip+AC3+MultiSubs+5x&amp;tr=udp%3A%2F%2Ftracker.openbittorrent.com%3A80&amp;tr=udp%3A%2F%2Fopen.demonii.com%3A1337&amp;tr=udp%3A%2F%2Ftracker.coppersurfer.tk%3A6969&amp;tr=udp%3A%2F%2Fexodus.desync.com%3A6969","seeders":0,"leechers":0,"uploader":"NLUPPER002","files":-1,"time":1286229361,"description":"Mirrors 2 (2010) DVDRip AC3 MultiSubs 5x\n\nRip from the Retail DVD9 External subs idx\n\nPLOT\n\nWhen Max, who is recovering from a traumatic accident,\ntakes a job as a nighttime security guard,\nhe begins to see visions of a young mysterious woman in the store's mirror.\n &lt;a href=&quot;\nhttp://www.youtube.com/watch?v=SQDinAzvXnc&quot; rel=&quot;nofollow&quot; target=&quot;_NEW&quot;&gt;\nhttp://www.youtube.com/watch?v=SQDinAzvXnc&lt;/a&gt;\n\nMM: http://www.moviemeter.nl/film/68039\n\nIMDB: http://www.imdb.com/title/tt1576699/\n\nINFO\n\nVideo #0\nID : 0\nFormat : MPEG-4 Visual\nFormat profile : AdvancedSimple@L5\nFormat settings, BVOP : Yes\nFormat settings, QPel : No\nFormat settings, GMC : No warppoints\nFormat settings, Matrix : Default (H.263)\nMuxing mode : Packed bitstream\nCodec ID : DX50\nCodec ID/Hint : DivX 5\nDuration : 1h 26mn\nBit rate : 1 462 Kbps\nWidth : 720 pixels\nHeight : 406 pixels\nDisplay aspect ratio : 16:9\nFrame rate : 25.000 fps\nResolution : 24 bits\nColorimetry : 4:2:0\nScan type : Progressive\nBits/(Pixel*Frame) : 0.200\nStream size : 902 MiB (76%)\nWriting library : XviD 1.2.1 (UTC 2008-12-04)\nAudio #1\nID : 1\nFormat : AC-3\nFormat/Info : Audio Coding 3\nCodec ID : 2000\nDuration : 1h 26mn\nBit rate mode : Constant\nBit rate : 448 Kbps\nChannel(s) : 6 channels\nChannel positions : Front: L C R, Surround: L R, LFE\nSampling rate : 48.0 KHz\nStream size : 277 MiB (23%)\nAlignment : Aligned on interleaves\nInterleave, duration : 32 ms (0.80 video frame)\nInterleave, preload duration : 32 ms\n\n\nThanks To NLUPPER\n\nENJOY","torrent":{"xt":"urn:btih:a8faf3ff579d3003eab654ef39bdc3f8dd73d5b1","amp;dn":"Mirrors+2+%282010%29+DVDRip+AC3+MultiSubs+5x","amp;tr":["udp%3A%2F%2Ftracker.openbittorrent.com%3A80","udp%3A%2F%2Fopen.demonii.com%3A1337","udp%3A%2F%2Ftracker.coppersurfer.tk%3A6969","udp%3A%2F%2Fexodus.desync.com%3A6969"],"infoHash":"a8faf3ff579d3003eab654ef39bdc3f8dd73d5b1","infoHashBuffer":{"type":"Buffer","data":[168,250,243,255,87,157,48,3,234,182,84,239,57,189,195,248,221,115,213,177]},"announce":[],"urlList":[]}}